<svg xmlns="http://www.w3.org/2000/svg" viewBox="0 0 32 32" width="32" height="32">
  <defs>
    <linearGradient id="brainGradient" x1="0%" y1="0%" x2="100%" y2="100%">
      <stop offset="0%" style="stop-color:#667eea;stop-opacity:1" />
      <stop offset="100%" style="stop-color:#764ba2;stop-opacity:1" />
    </linearGradient>
    <filter id="glow">
      <feGaussianBlur stdDeviation="2" result="coloredBlur"/>
      <feMerge> 
        <feMergeNode in="coloredBlur"/>
        <feMergeNode in="SourceGraphic"/>
      </feMerge>
    </filter>
  </defs>
  
  <!-- Brain outline -->
  <path d="M16 4c-2.5 0-4.5 1.5-5.5 3.5-1.5 2-2 4.5-2 7.5 0 3 1 5.5 2.5 7.5 1.5 2 3.5 3.5 6 4.5 2.5 1 5.5 1 8 0 2.5-1 4.5-2.5 6-4.5 1.5-2 2.5-4.5 2.5-7.5 0-3-.5-5.5-2-7.5C20.5 5.5 18.5 4 16 4z" 
        fill="url(#brainGradient)" 
        stroke="#4a5568" 
        stroke-width="0.5"
        filter="url(#glow)"/>
  
  <!-- Brain hemispheres -->
  <path d="M12 8c-1 1.5-1.5 3.5-1.5 6 0 2.5.5 4.5 1.5 6 1 1.5 2.5 2.5 4 3 1.5.5 3 .5 4.5 0 1.5-.5 3-1.5 4-3 1-1.5 1.5-3.5 1.5-6 0-2.5-.5-4.5-1.5-6-1-1.5-2.5-2.5-4-3-1.5-.5-3-.5-4.5 0-1.5.5-3 1.5-4 3z" 
        fill="none" 
        stroke="#2d3748" 
        stroke-width="0.3"/>
  
  <!-- Neural connections -->
  <circle cx="14" cy="12" r="0.8" fill="#e53e3e"/>
  <circle cx="18" cy="12" r="0.8" fill="#e53e3e"/>
  <circle cx="13" cy="16" r="0.8" fill="#3182ce"/>
  <circle cx="17" cy="16" r="0.8" fill="#3182ce"/>
  <circle cx="15" cy="20" r="0.8" fill="#38a169"/>
  
  <!-- Connection lines -->
  <line x1="14" y1="12" x2="18" y2="12" stroke="#e53e3e" stroke-width="0.3"/>
  <line x1="13" y1="16" x2="17" y2="16" stroke="#3182ce" stroke-width="0.3"/>
  <line x1="14" y1="12" x2="13" y2="16" stroke="#e53e3e" stroke-width="0.2"/>
  <line x1="18" y1="12" x2="17" y2="16" stroke="#3182ce" stroke-width="0.2"/>
  <line x1="13" y1="16" x2="15" y2="20" stroke="#3182ce" stroke-width="0.2"/>
  <line x1="17" y1="16" x2="15" y2="20" stroke="#38a169" stroke-width="0.2"/>
  
  <!-- Brain stem -->
  <rect x="15.5" y="26" width="1" height="2" fill="#4a5568" rx="0.5"/>
</svg> 